<?xml version="1.0" encoding="utf-8"?>
<!-- Generator: Adobe Illustrator 21.0.0, SVG Export Plug-In . SVG Version: 6.00 Build 0)  -->
<svg version="1.1" id="Layer_1" xmlns="http://www.w3.org/2000/svg" xmlns:xlink="http://www.w3.org/1999/xlink" x="0px" y="0px"
	 viewBox="0 0 29 21" style="enable-background:new 0 0 29 21;" xml:space="preserve">
<style type="text/css">
	.st0{fill:#FFFFFF;}
</style>
<g>
	<path class="st0" d="M20.5,9.2c2.5,0,4.6-2.1,4.6-4.6c0-2.5-2.1-4.6-4.6-4.6c-2.5,0-4.6,2.1-4.6,4.6C15.9,7.1,18,9.2,20.5,9.2z
		 M20.5,2.2c1.3,0,2.4,1.1,2.4,2.4c0,1.3-1.1,2.4-2.4,2.4c-1.3,0-2.4-1.1-2.4-2.4C18.1,3.3,19.2,2.2,20.5,2.2z"/>
	<path class="st0" d="M20.5,11.4c-4.7,0-8.5,3.8-8.5,8.4c0,0.6,0.5,1.1,1.1,1.1h14.7c0.6,0,1.1-0.5,1.1-1.1
		C29,15.2,25.2,11.4,20.5,11.4z M14.4,18.8c0.5-2.9,3.1-5.1,6.2-5.1c3.1,0,5.6,2.2,6.2,5.1H14.4z"/>
	<path class="st0" d="M13.1,11c0-0.6-0.5-1.1-1.1-1.1H8.1V6c0-0.6-0.5-1.1-1.1-1.1S5.9,5.4,5.9,6v3.9H2c-0.6,0-1.1,0.5-1.1,1.1
		s0.5,1.1,1.1,1.1h3.9V16c0,0.6,0.5,1.1,1.1,1.1s1.1-0.5,1.1-1.1v-3.9H12C12.6,12.1,13.1,11.6,13.1,11z"/>
</g>
</svg>
