<?xml version="1.0" encoding="utf-8"?>
<!-- Generator: Adobe Illustrator 21.0.0, SVG Export Plug-In . SVG Version: 6.00 Build 0)  -->
<svg version="1.1" id="Layer_1" xmlns="http://www.w3.org/2000/svg" xmlns:xlink="http://www.w3.org/1999/xlink" x="0px" y="0px"
	 viewBox="0 0 26 21" style="enable-background:new 0 0 26 21;" xml:space="preserve">
<style type="text/css">
	.st0{fill:#FFFFFF;}
</style>
<g>
	<path class="st0" d="M8.5,9.2c2.5,0,4.6-2.1,4.6-4.6c0-2.5-2.1-4.6-4.6-4.6C6,0,3.9,2.1,3.9,4.6C3.9,7.1,6,9.2,8.5,9.2z M8.5,2.2
		c1.3,0,2.4,1.1,2.4,2.4C10.9,5.9,9.8,7,8.5,7C7.2,7,6.1,5.9,6.1,4.6C6.1,3.3,7.2,2.2,8.5,2.2z"/>
	<path class="st0" d="M8.5,11.4c-4.7,0-8.5,3.8-8.5,8.4c0,0.6,0.5,1.1,1.1,1.1h14.7c0.6,0,1.1-0.5,1.1-1.1
		C17,15.2,13.2,11.4,8.5,11.4z M2.4,18.8c0.5-2.9,3.1-5.1,6.2-5.1c3.1,0,5.6,2.2,6.2,5.1H2.4z"/>
	<path class="st0" d="M24.8,9.2l-4-4c-0.4-0.4-1.1-0.4-1.6,0c-0.4,0.4-0.4,1.1,0,1.6l2.1,2.1H15c-0.6,0-1.1,0.5-1.1,1.1
		s0.5,1.1,1.1,1.1h6.3l-2.1,2.1c-0.4,0.4-0.4,1.1,0,1.6c0.2,0.2,0.5,0.3,0.8,0.3c0.3,0,0.6-0.1,0.8-0.3l4-4
		C25.2,10.3,25.2,9.6,24.8,9.2z"/>
</g>
</svg>
