<?xml version="1.0" encoding="utf-8"?>
<!-- Generator: Adobe Illustrator 21.0.0, SVG Export Plug-In . SVG Version: 6.00 Build 0)  -->
<svg version="1.1" id="Layer_1" xmlns="http://www.w3.org/2000/svg" xmlns:xlink="http://www.w3.org/1999/xlink" x="0px" y="0px"
	 viewBox="0 0 23 23" style="enable-background:new 0 0 23 23;" xml:space="preserve">
<style type="text/css">
	.st0{fill:#1E394F;}
</style>
<path class="st0" d="M21.8,20.2l-4.6-4.6c1.2-1.5,1.9-3.5,1.9-5.6c0-5-4.1-9.1-9.1-9.1S0.9,5,0.9,10S5,19.1,10,19.1
	c2.1,0,4.1-0.7,5.6-1.9l4.6,4.6c0.2,0.2,0.5,0.3,0.8,0.3s0.6-0.1,0.8-0.3C22.2,21.3,22.2,20.7,21.8,20.2z M10,16.9
	c-3.8,0-6.9-3.1-6.9-6.9S6.2,3.1,10,3.1s6.9,3.1,6.9,6.9S13.8,16.9,10,16.9z"/>
</svg>
