<svg xmlns="http://www.w3.org/2000/svg" width="17" height="17" viewBox="0 0 17 17">
  <path fill="#FFF" d="M15.8603272,4.23331144 C15.1002093,2.93109998 14.069158,1.90005336 12.7669018,1.13997774 C11.4644131,0.379940894 10.0425647,0 8.50027136,0 C6.95813304,0 5.53585827,0.379940894 4.23360211,1.13997774 C2.93126841,1.89993706 1.90021709,2.93098369 1.14009924,4.23331144 C0.379942627,5.53571673 0,6.95798501 0,8.5 C0,10.0420925 0.380058924,11.4641282 1.13998294,12.766611 C1.90006203,14.0688225 2.93111335,15.0998691 4.23344705,15.8600223 C5.53585827,16.6200203 6.95801675,17 8.5001163,17 C10.0422158,17 11.4645294,16.6200203 12.7668631,15.8600223 C14.0691192,15.1001405 15.1001318,14.0688225 15.8601721,12.766611 C16.6200961,11.4642445 17,10.042015 17,8.5 C17.0000388,6.95782995 16.6200961,5.5355229 15.8603272,4.23331144 Z M14.0116685,7.20507646 L8.00201582,13.2147405 C7.86180028,13.3550717 7.69220034,13.4251597 7.49286711,13.4251597 C7.30105443,13.4251597 7.13509846,13.3550717 6.99484416,13.2147405 L2.98817646,9.20832364 C2.85552024,9.07539666 2.78903706,8.90971282 2.78903706,8.71030296 C2.78903706,8.50376026 2.85528764,8.3339285 2.98817646,8.20107905 L3.99534812,7.20507646 C4.13571872,7.06490033 4.30151962,6.99481226 4.49348736,6.99481226 C4.68545511,6.99481226 4.8514886,7.06493909 4.99162661,7.20507646 L7.49298341,9.70634432 L12.008606,5.20182928 C12.1488215,5.06161438 12.3147775,4.99148755 12.5066289,4.99148755 C12.6983253,4.99148755 12.8645526,5.06161438 13.0046519,5.20182928 L14.0118235,6.19798693 C14.1448674,6.33072008 14.2110792,6.50039678 14.2110792,6.70693948 C14.2110792,6.90623304 14.1448674,7.07226578 14.0116685,7.20507646 Z"/>
</svg>
