<svg xmlns="http://www.w3.org/2000/svg" width="18" height="20" viewBox="0 0 18 20">
  <g fill="#EC8081">
    <path d="M17.8521141,3.44665148 C17.7756923,3.36879271 17.6778759,3.32965831 17.5589777,3.32965831 L13.6184516,3.32965831 L12.7258213,1.15763098 C12.5983474,0.836719818 12.3687692,0.563553531 12.0373995,0.33808656 C11.7057171,0.112665148 11.3697469,0 11.0298015,0 L6.94907196,0 C6.60912655,0 6.27324566,0.112665148 5.94169727,0.33808656 C5.61010422,0.563553531 5.38057072,0.83667426 5.25300744,1.15763098 L4.36037717,3.32965831 L0.420029777,3.32965831 C0.300908189,3.32965831 0.203270471,3.36879271 0.12671464,3.44665148 C0.050382134,3.52469248 0.0120148883,3.62446469 0.0120148883,3.74583144 L0.0120148883,4.57835991 C0.0120148883,4.69972665 0.0502034739,4.79949886 0.12671464,4.87740319 C0.203270471,4.95539863 0.301086849,4.99439636 0.420029777,4.99439636 L1.64411911,4.99439636 L1.64411911,17.3770843 C1.64411911,18.0970387 1.84390571,18.7103872 2.24343424,19.2175399 C2.64305211,19.7250114 3.12337965,19.9784966 3.6845062,19.9784966 L14.2943226,19.9784966 C14.8555831,19.9784966 15.335866,19.7162642 15.7354392,19.1917995 C16.1349677,18.6669704 16.3346203,18.0449203 16.3346203,17.3252392 L16.3346203,4.99439636 L17.558933,4.99439636 C17.6778313,4.99439636 17.7756923,4.95539863 17.8520695,4.87740319 C17.9283573,4.79954442 17.9668586,4.69972665 17.9668586,4.57835991 L17.9668586,3.74583144 C17.9669479,3.62446469 17.928402,3.52469248 17.8521141,3.44665148 Z M6.75786104,1.80765376 C6.81731017,1.72965831 6.88962283,1.68182232 6.97462035,1.66460137 L11.0169826,1.66460137 C11.1019801,1.681959 11.1744268,1.72974943 11.2337866,1.80765376 L11.8460993,3.32947608 L6.13299752,3.32947608 L6.75786104,1.80765376 Z M14.7025161,17.3253303 C14.7025161,17.5160364 14.6728586,17.6917084 14.6132308,17.8520273 C14.5536476,18.0123007 14.4918759,18.129385 14.428273,18.2030979 C14.3643573,18.2769932 14.3200496,18.3136674 14.2943672,18.3136674 L3.68455087,18.3136674 C3.65904715,18.3136674 3.61465012,18.2769932 3.55073449,18.2030979 C3.48690819,18.129385 3.42522581,18.0123007 3.36568734,17.8520273 C3.30623821,17.6917084 3.27649132,17.5158542 3.27649132,17.3253303 L3.27649132,4.99439636 L14.7024715,4.99439636 L14.7024715,17.3253303 L14.7025161,17.3253303 Z"/>
    <path d="M5.31692308 15.816492L6.13299752 15.816492C6.25211911 15.816492 6.34998015 15.7775399 6.42631266 15.6995444 6.50264516 15.6212756 6.54101241 15.5218223 6.54101241 15.4002278L6.54101241 7.90801822C6.54101241 7.78669704 6.50264516 7.68692483 6.42631266 7.60883827 6.34975682 7.5309795 6.25216377 7.49198178 6.13299752 7.49198178L5.31692308 7.49198178C5.19780149 7.49198178 5.10011911 7.53093394 5.02360794 7.60883827 4.9471861 7.68692483 4.90890819 7.78669704 4.90890819 7.90801822L4.90890819 15.4002278C4.90890819 15.5218223 4.94705211 15.6213212 5.02360794 15.6995444 5.10011911 15.7774943 5.19780149 15.816492 5.31692308 15.816492zM8.58144417 15.816492L9.39751861 15.816492C9.51659553 15.816492 9.61441191 15.7775399 9.69069975 15.6995444 9.76743424 15.6212756 9.80544417 15.5218223 9.80544417 15.4002278L9.80544417 7.90801822C9.80544417 7.78669704 9.76738958 7.68692483 9.69069975 7.60883827 9.61441191 7.5309795 9.51659553 7.49198178 9.39751861 7.49198178L8.58144417 7.49198178C8.46245658 7.49198178 8.3646402 7.53093394 8.28812903 7.60883827 8.2115732 7.68692483 8.17342928 7.78669704 8.17342928 7.90801822L8.17342928 15.4002278C8.17342928 15.5218223 8.2115732 15.6213212 8.28812903 15.6995444 8.36459553 15.7774943 8.46245658 15.816492 8.58144417 15.816492zM11.8460546 15.816492L12.661995 15.816492C12.781206 15.816492 12.8790223 15.7775399 12.9554442 15.6995444 13.031866 15.6212756 13.0698759 15.5218223 13.0698759 15.4002278L13.0698759 7.90801822C13.0698759 7.78669704 13.0318213 7.68692483 12.9554442 7.60883827 12.8790223 7.5309795 12.781206 7.49198178 12.661995 7.49198178L11.8460546 7.49198178C11.726799 7.49198178 11.6292953 7.53093394 11.5525608 7.60883827 11.476139 7.68692483 11.4379504 7.78669704 11.4379504 7.90801822L11.4379504 15.4002278C11.4379504 15.5218223 11.476139 15.6213212 11.5525608 15.6995444 11.6292953 15.7774943 11.726799 15.816492 11.8460546 15.816492z"/>
  </g>
</svg>
