<svg xmlns="http://www.w3.org/2000/svg" width="21" height="21" viewBox="0 0 21 21">
  <g fill="none">
    <path fill="#70899F" d="M20.1529412,19.4384615 L0.847058824,19.4384615 C0.441176471,19.4384615 0.123529412,19.7794872 0.123529412,20.174359 C0.123529412,20.5692308 0.458823529,20.9102564 0.847058824,20.9102564 L20.1705882,20.9102564 C20.5764706,20.9102564 20.8941176,20.5692308 20.8941176,20.174359 C20.8941176,19.7794872 20.5588235,19.4384615 20.1529412,19.4384615 Z"/>
    <path fill="#74899F" d="M0.123529412,12.9230769 L0.105882353,16.4230769 C0.105882353,16.6205128 0.176470588,16.8179487 0.317647059,16.9615385 C0.458823529,17.1051282 0.635294118,17.1769231 0.829411765,17.1769231 L4.25294118,17.1589744 C4.44705882,17.1589744 4.62352941,17.0871795 4.76470588,16.9435897 L16.5882353,4.91794872 C16.8705882,4.63076923 16.8705882,4.16410256 16.5882353,3.85897436 L13.2,0.376923077 C12.9176471,0.0897435897 12.4588235,0.0897435897 12.1588235,0.376923077 L9.79411765,2.8 L0.335294118,12.4025641 C0.211764706,12.5461538 0.123529412,12.725641 0.123529412,12.9230769 Z M12.6882353,1.95641026 L15.0705882,4.37948718 L13.7294118,5.74358974 L11.3470588,3.32051282 L12.6882353,1.95641026 Z M1.58823529,13.2461538 L10.3058824,4.37948718 L12.6882353,6.8025641 L3.97058824,15.6512821 L1.57058824,15.6692308 L1.58823529,13.2461538 L1.58823529,13.2461538 Z"/>
  </g>
</svg>
