<svg xmlns="http://www.w3.org/2000/svg" width="46" height="53" viewBox="0 0 46 53">
  <g fill="none">
    <path fill="#E2E5E7" d="M10.25,0 C8.4625,0 7,1.490625 7,3.3125 L7,49.6875 C7,51.509375 8.4625,53 10.25,53 L42.75,53 C44.5375,53 46,51.509375 46,49.6875 L46,13.25 L33,0 L10.25,0 Z"/>
    <path fill="#B0B7BD" d="M36.25,13 L46,13 L33,0 L33,9.75 C33,11.5375 34.4625,13 36.25,13 Z"/>
    <polygon fill="#CAD1D8" points="46 23 36 13 46 13"/>
    <path fill="#50BEE8" d="M39,43.3333333 C39,44.25 38.26875,45 37.375,45 L1.625,45 C0.73125,45 0,44.25 0,43.3333333 L0,26.6666667 C0,25.75 0.73125,25 1.625,25 L37.375,25 C38.26875,25 39,25.75 39,26.6666667 L39,43.3333333 Z"/>
    <g fill="#FFF" transform="translate(7 30)">
      <path d="M4.51485944 1.0916129C4.51485944-.064516129 6.21124498-.064516129 6.21124498 1.0916129L6.21124498 6.52473118C6.21124498 8.6855914 5.24738956 9.99311828 3.02570281 9.99311828 1.93333333 9.99311828 1.02248996 9.67483871.225702811 8.57548387-.429718876 7.73591398.804016064 6.52645161 1.47228916 7.4055914 2.01204819 8.12129032 2.59036145 8.28645161 3.15421687 8.25892473 3.87228916 8.23139785 4.50361446 7.8855914 4.51646586 6.52473118L4.51646586 1.0916129 4.51485944 1.0916129zM8.46827309 1.0916129C8.46827309.637419355 8.80240964.141935484 9.34216867.141935484L12.3092369.141935484C13.9799197.141935484 15.4835341 1.33935484 15.4835341 3.6344086 15.4835341 5.80903226 13.9799197 7.02021505 12.3092369 7.02021505L10.1646586 7.02021505 10.1646586 8.83698925C10.1646586 9.44258065 9.80481928 9.78494624 9.34216867 9.78494624 8.91807229 9.78494624 8.46827309 9.44258065 8.46827309 8.83698925L8.46827309 1.0916129 8.46827309 1.0916129zM10.1646586 1.8744086L10.1646586 5.30150538 12.3092369 5.30150538C13.1702811 5.30150538 13.8514056 4.48774194 13.8514056 3.6344086 13.8514056 2.67268817 13.1702811 1.8744086 12.3092369 1.8744086L10.1646586 1.8744086zM24.6562249 8.72688172C23.7437751 9.53892473 22.6257028 9.88301075 21.4963855 9.88301075 18.7975904 9.88301075 16.8843373 8.23311828 16.8843373 4.95741935 16.8843373 2.18064516 18.902008.0215053763 21.6104418.0215053763 22.6257028.0215053763 23.7421687.391397849 24.5389558 1.23096774 25.3212851 2.05505376 24.1919679 3.28 23.42249 2.55225806 22.946988 2.05677419 22.2787149 1.68516129 21.6104418 1.68516129 20.0570281 1.68516129 18.5550201 3.01849462 18.5550201 4.95741935 18.5550201 6.9944086 19.8128514 8.23311828 21.4963855 8.23311828 22.2787149 8.23311828 22.946988 7.98365591 23.42249 7.61376344L23.42249 5.92258065 21.4963855 5.92258065C20.3526104 5.92258065 20.4682731 4.24344086 21.4963855 4.24344086L24.0650602 4.24344086C24.5405622 4.24344086 24.9759036 4.6288172 24.9759036 5.05548387L24.9759036 7.98537634C24.9759036 8.23311828 24.8746988 8.46365591 24.6562249 8.72688172z"/>
    </g>
    <path fill="#CAD1D8" d="M38.35,44.5 L7,44.5 L7,46 L38.35,46 C39.2575,46 40,45.325 40,44.5 L40,43 C40,43.825 39.2575,44.5 38.35,44.5 Z"/>
  </g>
</svg>
