<svg xmlns="http://www.w3.org/2000/svg" width="46" height="53" viewBox="0 0 46 53">
  <g fill="none">
    <path fill="#E2574C" d="M3.28569,0 L31.2027508,0 L46,14.8599204 L46,49.6875321 C46,51.5176239 44.5280775,53 42.71431,53 L3.28569,53 C1.47192249,53 0,51.5176239 0,49.6875321 L0,3.31246787 C0,1.48237607 1.47209247,0 3.28569,0 Z"/>
    <path fill="#B53629" d="M46,15 L34.3440791,15 C32.4980796,15 31,13.5034221 31,11.6592732 L31,0 L46,15 Z"/>
    <path fill="#FFF" d="M34.1793918,24.9218742 C34.7303205,24.9218742 35,24.4343221 35,23.9618009 C35,23.4725212 34.7187507,23 34.1793918,23 L31.0419222,23 C30.4285503,23 30.0865593,23.515886 30.0865593,24.0853302 L30.0865593,31.9146698 C30.0865593,32.6126535 30.4778923,33 31.0073828,33 C31.5336406,33 31.926675,32.6126535 31.926675,31.9146698 L31.926675,29.7657781 L33.8242996,29.7657781 C34.4130005,29.7657781 34.707351,29.2764983 34.707351,28.790674 C34.707351,28.3148702 34.4130005,27.8421762 33.8242996,27.8421762 L31.926675,27.8421762 L31.926675,24.9218742 C31.926675,24.9218742 34.1793918,24.9218742 34.1793918,24.9218742 Z M23.5747786,23 L21.2791854,23 C20.6559451,23 20.2135687,23.4341667 20.2135687,24.0785923 L20.2135687,31.9214077 C20.2135687,32.721152 20.8499101,32.971666 21.3053877,32.971666 L23.7144675,32.971666 C26.5657536,32.971666 28.4485756,31.0665503 28.4485756,28.1260344 C28.4470443,25.0170695 26.6744761,23 23.5747786,23 Z M23.6850324,31.0382163 L22.2855917,31.0382163 L22.2855917,24.9336224 L23.5468749,24.9336224 C25.4560694,24.9336224 26.2863758,26.2343947 26.2863758,28.0292842 C26.2863758,29.7091101 25.4707018,31.0382163 23.6850324,31.0382163 Z M15.2756271,23 L13.0014721,23 C12.358495,23 12,23.4307113 12,24.0853302 L12,31.9146698 C12,32.6126535 12.4110698,33 12.9635298,33 C13.5159899,33 13.9270597,32.6126535 13.9270597,31.9146698 L13.9270597,29.6287728 L15.3527027,29.6287728 C17.1121698,29.6287728 18.5641853,28.3630725 18.5641853,26.3276896 C18.5643554,24.3358442 17.1633834,23 15.2756271,23 Z M15.237855,27.7922462 L13.9272298,27.7922462 L13.9272298,24.8384271 L15.237855,24.8384271 C16.0468934,24.8384271 16.5615813,25.4795702 16.5615813,26.3161141 C16.5598799,27.1511031 16.0468934,27.7922462 15.237855,27.7922462 Z"/>
  </g>
</svg>
