<svg xmlns="http://www.w3.org/2000/svg" width="28" height="30" viewBox="0 0 28 30">
  <g>
    <path d="M23.6326087,6.14285714 L22.8778261,6.14285714 L22.8778261,4.42857143 C22.8778261,1.98757764 20.93,0 18.5378261,0 L9.42565217,0 C7.03347826,0 5.08565217,1.98757764 5.08565217,4.42857143 L5.08565217,6.14285714 L4.39782609,6.14285714 C2.00565217,6.14285714 0.057826087,8.13043478 0.057826087,10.5714286 L0.057826087,17.7142857 C0.057826087,20.1552795 2.00565217,22.1428571 4.39782609,22.1428571 L5.07956522,22.1428571 L5.07956522,27.757764 C5.07956522,28.9751553 6.05347826,29.9689441 7.24652174,29.9689441 L20.7047826,29.9689441 C21.8978261,29.9689441 22.8717391,28.9751553 22.8717391,27.757764 L22.8717391,22.1428571 L23.6326087,22.1428571 C26.0247826,22.1428571 27.9726087,20.1552795 27.9726087,17.7142857 L27.9726087,10.5714286 C27.9726087,8.13043478 26.0247826,6.14285714 23.6326087,6.14285714 Z M6.72304348,4.42857143 C6.72304348,2.91304348 7.93434783,1.67701863 9.41956522,1.67701863 L18.5256522,1.67701863 C20.0108696,1.67701863 21.2221739,2.91304348 21.2221739,4.42857143 L21.2221739,6.14285714 L6.72304348,6.14285714 L6.72304348,4.42857143 Z M21.2282609,27.7701863 C21.2282609,28.0621118 20.9908696,28.3043478 20.7047826,28.3043478 L7.24652174,28.3043478 C6.96043478,28.3043478 6.72304348,28.0621118 6.72304348,27.7701863 L6.72304348,18.5093168 L21.2282609,18.5093168 L21.2282609,27.7701863 Z M26.3291304,17.7204969 C26.3291304,19.2360248 25.1178261,20.4720497 23.6326087,20.4720497 L22.8778261,20.4720497 L22.8778261,18.5093168 L23.9613043,18.5093168 C24.4178261,18.5093168 24.7830435,18.136646 24.7830435,17.6708075 C24.7830435,17.2049689 24.4178261,16.8322981 23.9613043,16.8322981 L3.87434783,16.8322981 C3.41782609,16.8322981 3.0526087,17.2049689 3.0526087,17.6708075 C3.0526087,18.136646 3.41782609,18.5093168 3.87434783,18.5093168 L5.08565217,18.5093168 L5.08565217,20.4720497 L4.39782609,20.4720497 C2.9126087,20.4720497 1.70130435,19.2360248 1.70130435,17.7204969 L1.70130435,10.5776398 C1.70130435,9.0621118 2.9126087,7.82608696 4.39782609,7.82608696 L23.6326087,7.82608696 C25.1178261,7.82608696 26.3291304,9.0621118 26.3291304,10.5776398 L26.3291304,17.7204969 Z"/>
    <path d="M8.71347826 22.6335404L19.1769565 22.6335404C19.6334783 22.6335404 19.9986957 22.2608696 19.9986957 21.7950311 19.9986957 21.3291925 19.6334783 20.9565217 19.1769565 20.9565217L8.71347826 20.9565217C8.25695652 20.9565217 7.89173913 21.3291925 7.89173913 21.7950311 7.89173913 22.2608696 8.26304348 22.6335404 8.71347826 22.6335404zM19.243913 24.3850932L8.77434783 24.3850932C8.31782609 24.3850932 7.9526087 24.757764 7.9526087 25.2236025 7.9526087 25.689441 8.31782609 26.0621118 8.77434783 26.0621118L19.2378261 26.0621118C19.6943478 26.0621118 20.0595652 25.689441 20.0595652 25.2236025 20.0595652 24.757764 19.6943478 24.3850932 19.243913 24.3850932zM23.6143478 9.43478261L21.9465217 9.43478261C21.49 9.43478261 21.1247826 9.80745342 21.1247826 10.2732919 21.1247826 10.7391304 21.49 11.1118012 21.9465217 11.1118012L23.6143478 11.1118012C24.0708696 11.1118012 24.436087 10.7391304 24.436087 10.2732919 24.436087 9.80745342 24.0708696 9.43478261 23.6143478 9.43478261z"/>
  </g>
</svg>
