<svg xmlns="http://www.w3.org/2000/svg" width="19" height="22" viewBox="0 0 19 22">
  <g fill="#00A9CC" fill-rule="evenodd">
    <path d="M4.76432215,7.12992925 C4.76792975,7.14298016 4.77165759,7.15603107 4.77502468,7.16932145 C4.78296139,7.20009287 4.79101835,7.23074456 4.80196139,7.26091731 C4.80977785,7.28222981 4.81879684,7.30186605 4.82781582,7.32186148 C4.84236646,7.3537105 4.85932215,7.38448192 4.87748038,7.41525334 L4.89022722,7.43620664 C4.89515759,7.44446822 4.89984747,7.45296928 4.90549937,7.46123086 C4.94169557,7.51379371 4.97584747,7.55570032 5.01060063,7.59042293 L8.82322722,11.3865623 C8.99603101,11.5583794 9.22619557,11.6530883 9.47103101,11.6530883 L9.48979051,11.6530883 C9.7347462,11.6530883 9.96479051,11.5583794 10.1377146,11.3864426 L13.9503411,7.5903032 C13.9849741,7.55582005 14.0186449,7.51439238 14.0564044,7.46003353 C14.0627778,7.45105355 14.0674677,7.44243276 14.0725184,7.43393171 L14.0845437,7.4136968 C14.1048665,7.37981232 14.1204994,7.3504777 14.1328854,7.32257988 C14.1429867,7.30078845 14.1517652,7.28115221 14.1592209,7.26103704 C14.1710057,7.22966696 14.1787019,7.19925474 14.1863981,7.16872279 L14.1963791,7.13160551 C14.1967399,7.13052791 14.1968601,7.12945032 14.1972209,7.12849245 L14.1972209,7.07161921 L14.2118918,7.04731338 C14.2426766,6.77156794 14.1473158,6.49630144 13.9507019,6.30065748 C13.7772968,6.12812202 13.5472525,6.03317363 13.3024171,6.03317363 C13.0579424,6.03317363 12.8278981,6.12812202 12.6546133,6.30053775 L10.3534487,8.5916315 L10.3534487,0.912546173 C10.3534487,0.409427493 9.94230316,5.9866573e-05 9.43687911,5.9866573e-05 C8.93157532,5.9866573e-05 8.52042975,0.409427493 8.52042975,0.912546173 L8.52042975,8.50554336 L6.30560696,6.30065748 C6.13244241,6.12824175 5.90251835,6.03329336 5.65792342,6.03329336 C5.41320823,6.03329336 5.18280316,6.12824175 5.00963861,6.30065748 C4.7983538,6.51066942 4.70431582,6.81143908 4.75782848,7.10574315 C4.75963228,7.11436394 4.76203734,7.12214659 4.76432215,7.12992925"/>
    <path d="M16.7238842,0.0591601475 C16.5879981,0.661178406 16.2959032,1.20919702 15.8653968,1.6660987 C16.6092829,1.78846598 17.1236057,2.19531921 17.1236057,2.56553409 L17.1236057,10.8277198 C17.1236057,11.2696549 16.3905424,11.7639133 15.4092766,11.7639133 L3.48797911,11.7639133 C2.50671329,11.7639133 1.77365,11.2696549 1.77365,10.8277198 L1.77365,2.56553409 C1.77365,2.18633922 2.3133462,1.76859027 3.08657405,1.65771738 C2.65594747,1.1975829 2.36505506,0.646451229 2.23157405,0.0414396419 C0.882333544,0.430811833 3.60759494e-05,1.4114263 3.60759494e-05,2.56553409 L3.60759494e-05,10.8277198 C3.60759494e-05,12.3429428 1.53206139,13.5298575 3.48797911,13.5298575 L15.4089158,13.5298575 C17.3648335,13.5298575 18.8968589,12.3429428 18.8968589,10.8277198 L18.8972196,2.56589329 C18.8972196,1.4341756 18.0384918,0.460984586 16.7238842,0.0591601475" transform="translate(0 7.666)"/>
  </g>
</svg>
