<svg xmlns="http://www.w3.org/2000/svg" width="23" height="20" viewBox="0 0 23 20">
  <g fill="#FFF" fill-rule="evenodd">
    <path fill-rule="nonzero" d="M16,19.2638031 L16,6.24541772 C16,6.03681417 15.917051,5.84050945 15.7748288,5.70552559 L10.0503843,0.196304725 C9.92,0.073619685 9.74222222,0 9.56444444,0 L0.711111111,0 C0.32,0 0,0.331288583 0,0.73619685 L0,8.95704724 C0,9.36195551 0.32,9.69324409 0.711111111,9.69324409 C1.10222222,9.69324409 1.42222222,9.36195551 1.42222222,8.95704724 L1.42222222,1.4723937 L8.65183791,1.4723937 L8.65183791,7.11655512 C8.65183791,7.52146339 8.97183791,7.85275197 9.36294902,7.85275197 L14.4592314,7.85275197 C14.4947869,7.85275197 14.5421804,7.85275197 14.5777359,7.84049646 L14.5777359,18.5276063 L1.42222222,18.5276063 L1.42222222,15.5828189 C1.42222222,15.1779106 1.10222222,14.846622 0.711111111,14.846622 C0.32,14.846622 0,15.1779106 0,15.5828189 L0,19.2638031 C0,19.6687114 0.32,20 0.711111111,20 L15.2888889,20 C15.68,20 16,19.6687114 16,19.2638031 Z M10.0740601,2.23314488 L14.3762824,6.38040157 L10.0740601,6.38040157 L10.0740601,2.23314488 L10.0740601,2.23314488 Z" transform="translate(7)"/>
    <path d="M0,12 C0,11.5741835 0.348367098,11.2258165 0.774183549,11.2258165 L3.09677848,11.2258165 L3.09677848,8.77418355 C3.09677848,8.3483671 3.44514558,8 3.87096203,8 C4.29677848,8 4.64514558,8.3483671 4.64514558,8.77418355 L4.64514558,11.2258165 L7.22581645,11.2258165 C7.6516329,11.2258165 8,11.5741835 8,12 C8,12.4258165 7.6516329,12.7741835 7.22581645,12.7741835 L4.64514558,12.7741835 L4.64514558,15.2258165 C4.64514558,15.6516329 4.29677848,16 3.87096203,16 C3.44514558,16 3.09677848,15.6516329 3.09677848,15.2258165 L3.09677848,12.7741835 L0.774227831,12.7741835 C0.34841138,12.7741835 0,12.4257722 0,12 Z"/>
  </g>
</svg>
